<svg xmlns="http://www.w3.org/2000/svg" viewBox="0 0 512 512" role="img" aria-label="Fargo Matchups">
  <defs>
    <linearGradient id="bg" x1="0%" y1="0%" x2="100%" y2="100%">
      <stop offset="0%" stop-color="#667eea"/>
      <stop offset="100%" stop-color="#764ba2"/>
    </linearGradient>
  </defs>
  <rect width="512" height="512" rx="96" fill="url(#bg)"/>
  <g fill="#ffd700" stroke="#e6b800" stroke-width="8">
    <path d="M136 152h240v72c0 66-54 120-120 120s-120-54-120-120v-72z" fill="#ffd700"/>
    <path d="M196 344h120v48H196z" fill="#ffd700"/>
    <path d="M168 392h176v32H168z" fill="#ffd700"/>
    <path d="M136 152h48v24c0 36 28 64 64 64h32c36 0 64-28 64-64v-24h48v24c0 66-54 120-120 120s-120-54-120-120v-24z" fill="#ffec80"/>
  </g>
  <path d="M136 152h48v16c0 40 32 72 72 72h40c40 0 72-32 72-72v-16h48" fill="none" stroke="#fff" stroke-width="10" stroke-linecap="round"/>
</svg>
